# xmcd
#
# Track frame offsets: 
#        150
#        11448
#        32396
#        93499
#        140676
#        166012
#        194984
#        214738
#        236713
#        257416
#        274524
#        292732
#        309530
#
# Disc length: 4445 seconds
#
# Revision: 1
# Processed by: cddbd v1.5.2PL0 Copyright (c) Steve Scherf et al.
# Submitted via: ExactAudioCopy v0.99pb5
#
DISCID=af115b0d
DTITLE=葉德嫻 - 葉德嫻星之旅演唱會 [CD2]
DYEAR=2005
DGENRE=Pop
TTITLE0=赤子
TTITLE1=邊緣回望
TTITLE2=小城大事
TTITLE3=好東西
TTITLE4=心肝房客
TTITLE5=美中不足 (葉德嫻、廖書凡)
TTITLE6=教我如何不愛他 (葉德嫻、倫永亮)
TTITLE7=如果沒有你
TTITLE8=千個太陽
TTITLE9=Say You Love Me
TTITLE10=Emotion
TTITLE11=Just One Smile
TTITLE12=Ain't No Mountain High Enough (葉德嫻、倫永亮、廖書凡)
EXTD=YEAR: 2005
EXTT0=
EXTT1=
EXTT2=
EXTT3=
EXTT4=
EXTT5=
EXTT6=
EXTT7=
EXTT8=
EXTT9=
EXTT10=
EXTT11=
EXTT12=
PLAYORDER=
